<?xml version="1.0" standalone="no"?>
<!DOCTYPE svg PUBLIC "-//W3C//DTD SVG 20010904//EN"
 "http://www.w3.org/TR/2001/REC-SVG-20010904/DTD/svg10.dtd">
<svg version="1.0" xmlns="http://www.w3.org/2000/svg"
 width="1024.000000pt" height="1024.000000pt" viewBox="0 0 1024.000000 1024.000000"
 preserveAspectRatio="xMidYMid meet">

<g transform="translate(0.000000,1024.000000) scale(0.100000,-0.100000)"
fill="#000000" stroke="none">
<path d="M0 5120 l0 -5120 5120 0 5120 0 0 5120 0 5120 -5120 0 -5120 0 0
-5120z m5381 2732 c102 -27 190 -65 273 -119 70 -45 176 -143 176 -162 0 -8
-78 -11 -244 -11 l-244 0 -28 58 c-36 75 -151 191 -221 223 -42 19 -49 25 -35
31 31 14 243 0 323 -20z m-698 -119 c-13 -47 -6 -195 11 -242 9 -24 16 -47 16
-51 0 -5 -21 -20 -46 -35 -175 -102 -423 -341 -545 -523 -71 -106 -153 -266
-184 -357 -29 -88 -54 -216 -67 -347 -13 -145 -1 -315 32 -441 11 -40 20 -78
20 -84 0 -10 -43 -13 -184 -13 l-184 0 -11 48 c-58 270 -51 540 21 827 61 245
167 453 345 672 128 158 311 321 479 427 79 49 275 146 297 146 4 0 4 -12 0
-27z m251 12 c117 -36 187 -96 285 -244 l72 -109 112 -7 c62 -3 249 -5 417 -3
l305 3 50 -61 c28 -34 98 -126 156 -205 l105 -144 237 -130 237 -130 0 -47 0
-48 -180 0 c-207 0 -187 -6 -400 122 -149 90 -203 142 -232 225 l-23 63 -232
0 c-131 0 -233 -4 -233 -9 0 -17 75 -109 120 -146 71 -60 203 -109 280 -104
16 1 71 -27 150 -76 487 -304 476 -299 557 -292 l63 5 -6 -57 c-9 -77 -34
-131 -91 -192 -90 -96 -144 -109 -458 -109 l-221 0 -41 -42 c-23 -24 -49 -60
-58 -80 -8 -21 -18 -38 -21 -38 -4 0 -45 23 -93 51 -47 28 -117 70 -156 92
-268 156 -389 281 -469 481 -76 189 -75 442 3 627 29 69 31 89 10 89 -16 0
-101 41 -139 66 -66 45 -140 127 -171 190 -33 67 -43 157 -26 237 9 42 17 44
91 22z m-108 -479 l44 -44 -34 -74 c-35 -76 -60 -178 -71 -285 -7 -78 10 -249
35 -350 40 -157 145 -338 269 -467 123 -127 197 -178 504 -348 229 -126 307
-180 424 -292 118 -113 181 -195 243 -321 47 -93 90 -229 90 -281 0 -29 -143
-159 -252 -228 l-27 -18 -6 39 c-41 244 -206 484 -448 651 -41 28 -161 99
-268 157 -221 122 -299 169 -384 234 -244 184 -423 455 -481 726 -26 121 -24
334 5 449 38 159 132 326 254 454 23 23 45 42 50 42 5 0 28 -20 53 -44z m-570
-719 c0 -125 6 -243 13 -287 40 -231 170 -489 340 -672 83 -91 239 -218 391
-320 178 -120 271 -191 350 -269 163 -160 270 -352 298 -533 6 -38 9 -73 6
-77 -9 -15 -255 -79 -304 -79 -4 0 -11 12 -15 28 -11 47 -81 187 -123 248 -83
122 -191 216 -457 399 -246 170 -388 308 -516 504 -74 112 -118 208 -152 329
-18 66 -21 104 -21 272 -1 172 2 205 22 282 29 110 83 246 130 325 20 35 37
63 37 63 0 0 0 -96 1 -213z m2519 -592 c-4 -38 -11 -87 -17 -109 -16 -51 -89
-131 -152 -164 -49 -26 -59 -27 -223 -30 l-173 -4 0 39 c0 145 101 243 249
243 101 0 205 44 266 112 l40 43 8 -30 c4 -16 5 -61 2 -100z m-2706 -648 c94
-145 274 -324 491 -490 58 -44 148 -124 201 -178 83 -83 104 -111 148 -199 53
-105 60 -130 39 -130 -29 0 -151 33 -263 70 -434 145 -795 470 -1019 918 l-36
72 199 0 199 0 41 -63z m2513 -1571 c267 -93 432 -370 384 -644 -34 -194 -162
-363 -333 -438 -88 -39 -232 -60 -324 -46 -149 21 -278 87 -364 185 -56 64
-120 188 -135 263 -18 84 -8 243 20 323 65 185 232 331 431 376 91 21 230 12
321 -19z m-2934 -423 l2 -443 248 -2 c136 -1 265 -3 287 -3 l40 -1 3 -122 3
-122 -426 0 -425 0 0 570 0 571 133 -3 132 -3 3 -442z m1717 322 l0 -120 -292
-3 -293 -2 0 -105 0 -105 210 0 210 0 0 -115 0 -115 -210 0 -210 0 0 -100 0
-100 310 0 310 0 0 -125 0 -125 -440 0 -440 0 0 570 0 570 423 -2 422 -3 0
-120z"/>
<path d="M6273 3489 c-67 -26 -137 -94 -171 -167 -37 -80 -37 -183 0 -263 69
-149 210 -223 356 -185 105 27 163 78 211 186 61 139 16 305 -107 395 -80 58
-192 71 -289 34z"/>
</g>
</svg>
